<?xml version="1.0" encoding="utf-8"?>
<!-- Generator: Adobe Illustrator 25.2.0, SVG Export Plug-In . SVG Version: 6.00 Build 0)  -->
<svg version="1.1" id="_EhxCjg0eFd-gWAOw8alkU" xmlns="http://www.w3.org/2000/svg" xmlns:xlink="http://www.w3.org/1999/xlink"
	 x="0px" y="0px" viewBox="0 0 512 512" style="enable-background:new 0 0 512 512;" xml:space="preserve">
<style type="text/css">
	.st0{fill-rule:evenodd;clip-rule:evenodd;fill:url(#_pWCOG6xWHbr3Mm2K8-BV5_1_);}
	.st1{fill:#7111A5;}
</style>
<linearGradient id="_pWCOG6xWHbr3Mm2K8-BV5_1_" gradientUnits="userSpaceOnUse" x1="-40.2579" y1="675.0568" x2="-36.2712" y2="675.0568" gradientTransform="matrix(101.3373 0 0 -116.2565 4141.1211 78725.7109)">
	<stop  offset="0" style="stop-color:#9729D6"/>
	<stop  offset="1" style="stop-color:#000000;stop-opacity:0.86"/>
</linearGradient>
<path id="_pWCOG6xWHbr3Mm2K8-BV5" xmlns:sketch="http://www.bohemiancoding.com/sketch/ns" class="st0" d="M445.5,402.8
	c0,30.5-24.7,55.2-55.2,55.2H167.2l-20.8-24h2.4h212.5c34.2,1.7,64.2-60.4,64.2-60.4V118h6.6c7.4,0,13.4,6,13.4,13.4V402.8z M89,394
	h265.3c15.1,0,27.3-12.2,27.3-27.3V82h10c5.5,0,10,4.5,10,10v283c0,21.5-17.5,39-39,39H114.3L89,394z M85.5,38h258.6
	c7.4,0,13.4,6,13.4,13.4v305.3c0,7.4-6,13.4-13.4,13.4H85.5V38z M429.2,94h-7.7v0c0-19.9-16.1-36-36-36h-4v-7.5
	c0-20.1-16.3-36.5-36.5-36.5H61.5v378.4l97.4,85.6h228.4c43.2,0,78.3-35,78.3-78.3V130.4C465.5,110.3,449.2,94,429.2,94L429.2,94z"
	/>
<g transform="matrix(0.678625226020813, 0, 0, 0.678625226020813, 30.979148864746094, 208.36288452148438)">
	<path class="st1" d="M349.8-132.8c-50.7-46.1-52.4-66.3-52.4-66.4c0-0.9-0.3-1.8-0.9-2.5c-0.5-0.6-4.7-5.6-10.8-5.6
		c-2.6,0-6.5,1-10.1,5.6c-0.5,0.7-0.8,1.5-0.8,2.4l-1.1,227.5c0,0.1-0.7,12.2-8.1,12.2c-0.6,0-1.2-0.1-1.4-0.1
		c-0.9-0.3-21.2-6.2-44.9-6.2c-46.4,0-72.1,23.2-72.4,65.3c-0.1,13.8,4.3,25.3,13.1,34.1c10.9,11,27.9,17,47.9,17
		c38.5,0,83.1-22.8,90-65.1c9.1-55.1,3-184.8,2.8-190.4c-0.2-3.1-0.1-12.6,3.4-16.3c2.1-2.2,5.4-1.6,10.1,1.3
		c12.5,7.5,41.8,30.5,43,81.2c0.5,20.2,3.4,28.5,10,28.5c5.6,0,9.7-7.4,11.7-11.8C379.2-22.6,405-82.7,349.8-132.8L349.8-132.8z"/>
</g>
</svg>
