<svg xmlns="http://www.w3.org/2000/svg" viewBox="0 0 167.17 167.17"><defs><style>.cls-1{fill:#fff;}</style></defs><g id="Livello_2" data-name="Livello 2"><g id="Layer_1" fill="#0c0c0c" data-name="Layer 1"><circle cx="83.59" cy="83.59" r="83.59"/><path class="cls-1" d="M48.1,68.92l.08,0a5.87,5.87,0,0,0,.58.39l0,0h0a5.81,5.81,0,0,0,2.9.77H115.1a5.87,5.87,0,0,0,4-10.2h0l-.09-.07-.27-.23-.16-.12-.28-.19a1.37,1.37,0,0,0-.2-.13l-.26-.15-.25-.12-.25-.11-.29-.11-.23-.08-.34-.08-.21-.06-.4-.06-.17,0a5.83,5.83,0,0,0-.59,0H51.69a5.88,5.88,0,0,0-5.88,5.88,5.62,5.62,0,0,0,.08.92A5.86,5.86,0,0,0,48.1,68.92Z"/><path class="cls-1" d="M119.08,85.2h0l-.08-.07-.28-.24-.15-.11-.29-.2a1.18,1.18,0,0,0-.19-.11l-.28-.17-.22-.1-.27-.13-.27-.09a2,2,0,0,0-.26-.09l-.3-.08a1.83,1.83,0,0,0-.25-.06l-.33-.05-.24,0-.41,0H51.69a5.9,5.9,0,0,0-5.88,5.88,6.14,6.14,0,0,0,.1,1.06,5.85,5.85,0,0,0,2.19,3.59l.08.06a5.25,5.25,0,0,0,.58.38l0,0h0a5.91,5.91,0,0,0,2.9.76H115.1a5.87,5.87,0,0,0,4-10.2Z"/><path class="cls-1" d="M119.08,110.46h0l-.08-.06a3.36,3.36,0,0,0-.29-.24l-.14-.11-.29-.21-.18-.1-.29-.17-.21-.1-.29-.13a2.34,2.34,0,0,0-.24-.09l-.28-.1-.27-.07-.28-.07-.28,0-.29,0h-.24l-.34,0H51.69a5.88,5.88,0,0,0-5.88,5.88,5.76,5.76,0,0,0,.12,1.18,5.82,5.82,0,0,0,2.16,3.46l.1.07a5.42,5.42,0,0,0,.56.37l0,0h0a5.92,5.92,0,0,0,2.9.77H115.1a5.88,5.88,0,0,0,5.88-5.88h0A5.87,5.87,0,0,0,119.08,110.46Z"/></g></g></svg>