<svg xmlns="http://www.w3.org/2000/svg" viewBox="0 0 167.17 167.17"><defs><style>.cls-1{fill:#fff;}</style></defs><g id="Livello_2" class="Livello_2" data-name="Livello 2"><g id="Layer_1" fill="#0c0c0c" data-name="Layer 1"><circle cx="83.59" cy="83.59" r="83.59"/><path class="cls-1" d="M91.93,42.5c.16,0,.32,0,.48.09a41.77,41.77,0,0,0-10.72-1A4.68,4.68,0,1,0,82,50.93a33.08,33.08,0,0,1,10,1.16l.11,0a32.43,32.43,0,0,1,14.25,8.38A32.78,32.78,0,0,1,77,115.88l.25.05A32.79,32.79,0,0,1,55.71,65.76l3.81,3.81a1.42,1.42,0,0,0,2.37-.63l5.9-21.1a1.39,1.39,0,0,0-.52-1.5h0l-.11-.06-.07-.05a1.69,1.69,0,0,0-.28-.12h0a1.28,1.28,0,0,0-.75,0L44.94,52a1.47,1.47,0,0,0-.65.39,1.43,1.43,0,0,0,0,2L49,59c-.83,1.16-1.6,2.35-2.31,3.58a42.11,42.11,0,0,0,6.69,50.85c.34.34.69.67,1,1l.18.16,1,.88.41.35,1,.8a3.92,3.92,0,0,0,.32.25c.66.52,1.33,1,2,1.48l.34.24,1,.64c.18.12.35.23.53.33s.66.41,1,.6l.48.27c.65.36,1.32.71,2,1l.44.22,1,.47.61.26,1,.42.59.22c.65.24,1.3.47,2,.68l.56.18,1,.29.68.19,1,.25.67.15a42.68,42.68,0,0,0,8.93,1A42.1,42.1,0,0,0,91.93,42.5Z"/></g></g></svg>