<svg xmlns="http://www.w3.org/2000/svg" viewBox="0 0 167.17 167.17"><defs><style>.cls-1{fill:#fff;}</style></defs><g id="Livello_2" class="Livello_2" data-name="Livello 2"><g id="Layer_1" fill="#0c0c0c" data-name="Layer 1"><circle cx="83.59" cy="83.59" r="83.59"/><path class="cls-1" d="M75.61,88.64h0l-.5-1-.72,1.46a28.74,28.74,0,0,1-5.29,7.5c-.33.33-.67.65-1,1A15.41,15.41,0,0,1,58,101.78H37.55a4.15,4.15,0,0,0-4.15,4.16h0a4.07,4.07,0,0,0,.05.61s0,.08,0,.12a3.65,3.65,0,0,0,.14.57l0,.09c.07.18.14.35.22.51l0,0a3.66,3.66,0,0,0,.31.49l.07.09a3.81,3.81,0,0,0,.37.43l.06,0a4.62,4.62,0,0,0,.41.34l.08.06a3.77,3.77,0,0,0,.48.28l.12.06a3.18,3.18,0,0,0,.54.21h0a4.5,4.5,0,0,0,1.22.18H58c8.38,0,16.3-5,21.77-13.58-.64-1-1.24-2.13-1.8-3.25Z"/><path class="cls-1" d="M138.65,60.24,119.86,49.66h0l-.18-.1a2.82,2.82,0,0,0-.64-.25,2.44,2.44,0,0,0-.65-.07,2.52,2.52,0,0,0-2.1,1.23,1.51,1.51,0,0,0-.15.28,2.51,2.51,0,0,0-.2,1h0v6.53H105c-8,0-15.59,4.56-21,12.45h0c.36.65.71,1.32,1.06,2l3.4,6.8.13-.27c4-7.94,10.12-12.68,16.43-12.68H116V73.1h0a2.83,2.83,0,0,0,0,.41l0,.12a2.68,2.68,0,0,0,.07.27l0,.12c0,.09.08.18.13.27a.25.25,0,0,0,0,.07,2.11,2.11,0,0,0,.21.31l.06.07a2.08,2.08,0,0,0,.21.21l.07.06.26.2a.05.05,0,0,1,0,0,2.5,2.5,0,0,0,2.55.05l19-10.67A2.52,2.52,0,0,0,138.65,60.24Z"/><path class="cls-1" d="M138.65,102.56,119.86,92h0l-.18-.1a2.55,2.55,0,0,0-1.23-.33A2.52,2.52,0,0,0,116,94.07h0v6.52H105q-.61,0-1.23-.06l-.38,0-.85-.13-.41-.1c-.28-.06-.56-.13-.83-.21l-.36-.11c-.3-.1-.6-.2-.89-.32-4.47-1.77-8.56-5.87-11.48-11.7l-2.16-4.32-4.62-9.23v0C77.52,65.78,71,60,63.79,57.91l-.2-.06-.88-.22-.2-.05-1.06-.2-.11,0-.93-.13-.32,0c-.25,0-.51-.05-.76-.06l-.32,0c-.35,0-.69,0-1,0H37.55a4.15,4.15,0,0,0-4.15,4.15h0a4.21,4.21,0,0,0,.05.62s0,.07,0,.11a3.39,3.39,0,0,0,.14.57l0,.09a5,5,0,0,0,.23.53v0c.1.17.21.34.32.5l.06.07a4.19,4.19,0,0,0,.39.45l0,0a3.75,3.75,0,0,0,.44.37l.06,0a3.15,3.15,0,0,0,.5.3.31.31,0,0,0,.1,0,4.35,4.35,0,0,0,.54.22h0a4.14,4.14,0,0,0,1.22.18H58a14,14,0,0,1,6.83,1.88l.21.11.9.56L66,68c.33.23.66.46,1,.71l.18.14q.42.33.84.69l.13.12q.47.42.93.87l.14.14.78.83.16.18c.29.33.58.67.86,1a1.71,1.71,0,0,1,.11.14c.24.31.48.63.72,1l.18.24c.26.38.52.77.77,1.17a.41.41,0,0,1,.07.11c.23.36.45.74.67,1.12l.18.32q.35.63.69,1.29l2.75,5.52,4,8c.21.41.42.82.64,1.21s.42.77.64,1.14l.2.33c.16.28.33.56.51.83.06.1.12.2.19.3.22.35.45.7.68,1l.17.23c.18.27.38.53.57.79l.24.32.59.76.18.22c.25.31.5.61.76.9l.23.26.6.65.25.27c.26.27.53.53.79.79l.07.06.82.76.26.23.66.56.24.19c.29.24.59.47.89.69l.16.12.76.53.27.18c.26.17.52.34.78.49l.17.11c.31.19.63.37.94.54l.26.13.73.37.3.14c.29.14.59.28.9.41l.07,0h0a21.53,21.53,0,0,0,8.35,1.7H116v6.52h0a2.73,2.73,0,0,0,0,.5.74.74,0,0,0,0,.14,1.58,1.58,0,0,0,.09.31l.08.16a2,2,0,0,0,.14.25.71.71,0,0,0,.1.14,2,2,0,0,0,.19.22.68.68,0,0,0,.12.12,1.24,1.24,0,0,0,.22.18l.13.1.29.15a2.6,2.6,0,0,0,.36.13l.12,0h0a2.8,2.8,0,0,0,.58.08,2.45,2.45,0,0,0,1.23-.33l19-10.68A2.51,2.51,0,0,0,138.65,102.56Z"/></g></g></svg>